<svg xmlns="http://www.w3.org/2000/svg" width="256" height="256" viewBox="0 0 100 100"><rect width="100" height="100" rx="20" fill="#075938"></rect><path fill="#ffffff" d="M69.80 24.37L69.80 24.37Q71.12 27.73 71.12 32.03Q71.12 36.33 69.78 39.84Q68.43 43.36 65.89 45.90L65.89 45.90Q61.06 50.73 51.68 52.69L51.68 52.69L52.56 51.07L71.85 80.37L75.27 81.88L82.15 82.67L82.15 86.82L65.41 86.82L43.43 51.71L47.53 53.47L34.45 53.47L34.45 81.54L41.77 82.67L41.77 86.82L17.85 86.82L17.85 82.67L25.42 81.54L25.42 18.46L17.85 17.33L17.85 13.18L41.92 13.18Q65.31 13.18 69.80 24.37ZM42.41 19.09L34.45 19.09L34.45 48.19L41.67 48.19Q57.50 48.19 60.82 38.96L60.82 38.96Q61.84 36.18 61.84 32.93Q61.84 29.69 60.91 27.10Q59.99 24.51 57.79 22.75L57.79 22.75Q53.25 19.09 42.41 19.09L42.41 19.09Z"></path></svg>